<?xml version="1.0" encoding="UTF-8"?>
<!DOCTYPE svg
PUBLIC "-//W3C//DTD SVG 1.1//EN"
       "http://www.w3.org/Graphics/SVG/1.1/DTD/svg11.dtd">
<svg viewBox="7 14 1459 1081" width="1452px" height="1067px" xmlns="http://www.w3.org/2000/svg" version="1.1">
   <line x1="676" y1="601" x2="686" y2="601" style="stroke:#c00;stroke-width:1;"/>
   <line x1="901" y1="420" x2="911" y2="420" style="stroke:#c00;stroke-width:1;"/>
   <line x1="686" y1="601" x2="901" y2="420" style="stroke:#c00;stroke-width:1;"/>
   <line x1="683.5" y1="601" x2="679.96446609407" y2="604.53553390593" style="stroke:#c00;stroke-width:2;"/>
   <line x1="683.5" y1="601" x2="679.96446609407" y2="597.46446609407" style="stroke:#c00;stroke-width:2;"/>
   <line x1="906" y1="420" x2="902.46446609407" y2="423.53553390593" style="stroke:#c00;stroke-width:2;"/>
   <line x1="906" y1="420" x2="902.46446609407" y2="416.46446609407" style="stroke:#c00;stroke-width:2;"/>
   <line x1="560" y1="621" x2="550" y2="621" style="stroke:#cb0;stroke-width:1;"/>
   <line x1="117" y1="780" x2="107" y2="780" style="stroke:#cb0;stroke-width:1;"/>
   <line x1="550" y1="621" x2="117" y2="780" style="stroke:#cb0;stroke-width:1;"/>
   <line x1="552.5" y1="621" x2="556.03553390593" y2="624.53553390593" style="stroke:#cb0;stroke-width:2;"/>
   <line x1="552.5" y1="621" x2="556.03553390593" y2="617.46446609407" style="stroke:#cb0;stroke-width:2;"/>
   <line x1="112" y1="780" x2="115.53553390593" y2="783.53553390593" style="stroke:#cb0;stroke-width:2;"/>
   <line x1="112" y1="780" x2="115.53553390593" y2="776.46446609407" style="stroke:#cb0;stroke-width:2;"/>
   <line x1="261" y1="251" x2="251" y2="251" style="stroke:#bbb;stroke-width:1;"/>
   <line x1="94" y1="59" x2="84" y2="59" style="stroke:#bbb;stroke-width:1;"/>
   <line x1="251" y1="251" x2="94" y2="59" style="stroke:#bbb;stroke-width:1;"/>
   <line x1="253.5" y1="251" x2="257.03553390593" y2="254.53553390593" style="stroke:#bbb;stroke-width:2;"/>
   <line x1="253.5" y1="251" x2="257.03553390593" y2="247.46446609407" style="stroke:#bbb;stroke-width:2;"/>
   <line x1="89" y1="59" x2="92.535533905933" y2="62.535533905933" style="stroke:#bbb;stroke-width:2;"/>
   <line x1="89" y1="59" x2="92.535533905933" y2="55.464466094067" style="stroke:#bbb;stroke-width:2;"/>
   <line x1="731" y1="774" x2="741" y2="774" style="stroke:#333;stroke-width:1;"/>
   <line x1="901" y1="420" x2="911" y2="420" style="stroke:#333;stroke-width:1;"/>
   <line x1="741" y1="774" x2="901" y2="420" style="stroke:#333;stroke-width:1;"/>
   <line x1="738.5" y1="774" x2="734.96446609407" y2="777.53553390593" style="stroke:#333;stroke-width:2;"/>
   <line x1="738.5" y1="774" x2="734.96446609407" y2="770.46446609407" style="stroke:#333;stroke-width:2;"/>
   <line x1="906" y1="420" x2="902.46446609407" y2="423.53553390593" style="stroke:#333;stroke-width:2;"/>
   <line x1="906" y1="420" x2="902.46446609407" y2="416.46446609407" style="stroke:#333;stroke-width:2;"/>
   <line x1="731" y1="754" x2="741" y2="754" style="stroke:#c00;stroke-width:1;"/>
   <line x1="927" y1="723" x2="937" y2="723" style="stroke:#c00;stroke-width:1;"/>
   <line x1="741" y1="754" x2="927" y2="723" style="stroke:#c00;stroke-width:1;"/>
   <line x1="738.5" y1="754" x2="734.96446609407" y2="757.53553390593" style="stroke:#c00;stroke-width:2;"/>
   <line x1="738.5" y1="754" x2="734.96446609407" y2="750.46446609407" style="stroke:#c00;stroke-width:2;"/>
   <line x1="932" y1="723" x2="928.46446609407" y2="726.53553390593" style="stroke:#c00;stroke-width:2;"/>
   <line x1="932" y1="723" x2="928.46446609407" y2="719.46446609407" style="stroke:#c00;stroke-width:2;"/>
   <line x1="49" y1="820" x2="39" y2="820" style="stroke:#cb0;stroke-width:1;"/>
   <line x1="16" y1="59" x2="26" y2="59" style="stroke:#cb0;stroke-width:1;"/>
   <line x1="39" y1="820" x2="16" y2="59" style="stroke:#cb0;stroke-width:1;"/>
   <line x1="41.5" y1="820" x2="45.035533905933" y2="823.53553390593" style="stroke:#cb0;stroke-width:2;"/>
   <line x1="41.5" y1="820" x2="45.035533905933" y2="816.46446609407" style="stroke:#cb0;stroke-width:2;"/>
   <line x1="21" y1="59" x2="17.464466094067" y2="62.535533905933" style="stroke:#cb0;stroke-width:2;"/>
   <line x1="21" y1="59" x2="17.464466094067" y2="55.464466094067" style="stroke:#cb0;stroke-width:2;"/>
   <line x1="1139" y1="1056" x2="1129" y2="1056" style="stroke:#333;stroke-width:1;"/>
   <line x1="565" y1="897" x2="555" y2="897" style="stroke:#333;stroke-width:1;"/>
   <line x1="1129" y1="1056" x2="565" y2="897" style="stroke:#333;stroke-width:1;"/>
   <line x1="1131.5" y1="1056" x2="1135.0355339059" y2="1059.5355339059" style="stroke:#333;stroke-width:2;"/>
   <line x1="1131.5" y1="1056" x2="1135.0355339059" y2="1052.4644660941" style="stroke:#333;stroke-width:2;"/>
   <line x1="560" y1="897" x2="563.53553390593" y2="900.53553390593" style="stroke:#333;stroke-width:2;"/>
   <line x1="560" y1="897" x2="563.53553390593" y2="893.46446609407" style="stroke:#333;stroke-width:2;"/>
   <line x1="769" y1="288" x2="779" y2="288" style="stroke:#c00;stroke-width:1;"/>
   <line x1="1119" y1="82" x2="1129" y2="82" style="stroke:#c00;stroke-width:1;"/>
   <line x1="779" y1="288" x2="1119" y2="82" style="stroke:#c00;stroke-width:1;"/>
   <line x1="776.5" y1="288" x2="772.96446609407" y2="291.53553390593" style="stroke:#c00;stroke-width:2;"/>
   <line x1="776.5" y1="288" x2="772.96446609407" y2="284.46446609407" style="stroke:#c00;stroke-width:2;"/>
   <line x1="1124" y1="82" x2="1120.4644660941" y2="85.535533905933" style="stroke:#c00;stroke-width:2;"/>
   <line x1="1124" y1="82" x2="1120.4644660941" y2="78.464466094067" style="stroke:#c00;stroke-width:2;"/>
   <line x1="22" y1="333" x2="12" y2="333" style="stroke:#0bf;stroke-width:1;"/>
   <line x1="16" y1="59" x2="26" y2="59" style="stroke:#0bf;stroke-width:1;"/>
   <line x1="12" y1="333" x2="16" y2="59" style="stroke:#0bf;stroke-width:1;"/>
   <line x1="14.5" y1="333" x2="18.035533905933" y2="336.53553390593" style="stroke:#0bf;stroke-width:2;"/>
   <line x1="14.5" y1="333" x2="18.035533905933" y2="329.46446609407" style="stroke:#0bf;stroke-width:2;"/>
   <line x1="21" y1="59" x2="17.464466094067" y2="62.535533905933" style="stroke:#0bf;stroke-width:2;"/>
   <line x1="21" y1="59" x2="17.464466094067" y2="55.464466094067" style="stroke:#0bf;stroke-width:2;"/>
   <line x1="101" y1="353" x2="111" y2="353" style="stroke:#b0b;stroke-width:1;"/>
   <line x1="140" y1="586" x2="150" y2="586" style="stroke:#b0b;stroke-width:1;"/>
   <line x1="111" y1="353" x2="140" y2="586" style="stroke:#b0b;stroke-width:1;"/>
   <line x1="108.5" y1="353" x2="104.96446609407" y2="356.53553390593" style="stroke:#b0b;stroke-width:2;"/>
   <line x1="108.5" y1="353" x2="104.96446609407" y2="349.46446609407" style="stroke:#b0b;stroke-width:2;"/>
   <line x1="145" y1="586" x2="141.46446609407" y2="589.53553390593" style="stroke:#b0b;stroke-width:2;"/>
   <line x1="145" y1="586" x2="141.46446609407" y2="582.46446609407" style="stroke:#b0b;stroke-width:2;"/>
   <line x1="1320" y1="391" x2="1310" y2="391" style="stroke:#c00;stroke-width:1;"/>
   <line x1="1125" y1="420" x2="1115" y2="420" style="stroke:#c00;stroke-width:1;"/>
   <line x1="1310" y1="391" x2="1125" y2="420" style="stroke:#c00;stroke-width:1;"/>
   <line x1="1312.5" y1="391" x2="1316.0355339059" y2="394.53553390593" style="stroke:#c00;stroke-width:2;"/>
   <line x1="1312.5" y1="391" x2="1316.0355339059" y2="387.46446609407" style="stroke:#c00;stroke-width:2;"/>
   <line x1="1120" y1="420" x2="1123.5355339059" y2="423.53553390593" style="stroke:#c00;stroke-width:2;"/>
   <line x1="1120" y1="420" x2="1123.5355339059" y2="416.46446609407" style="stroke:#c00;stroke-width:2;"/>
   <line x1="1320" y1="371" x2="1310" y2="371" style="stroke:#0bf;stroke-width:1;"/>
   <line x1="1327" y1="605" x2="1337" y2="605" style="stroke:#0bf;stroke-width:1;"/>
   <line x1="1310" y1="371" x2="1327" y2="605" style="stroke:#0bf;stroke-width:1;"/>
   <line x1="1312.5" y1="371" x2="1316.0355339059" y2="374.53553390593" style="stroke:#0bf;stroke-width:2;"/>
   <line x1="1312.5" y1="371" x2="1316.0355339059" y2="367.46446609407" style="stroke:#0bf;stroke-width:2;"/>
   <line x1="1332" y1="605" x2="1328.4644660941" y2="608.53553390593" style="stroke:#0bf;stroke-width:2;"/>
   <line x1="1332" y1="605" x2="1328.4644660941" y2="601.46446609407" style="stroke:#0bf;stroke-width:2;"/>
   <line x1="937" y1="863" x2="927" y2="863" style="stroke:#bbb;stroke-width:1;"/>
   <line x1="117" y1="780" x2="107" y2="780" style="stroke:#bbb;stroke-width:1;"/>
   <line x1="927" y1="863" x2="117" y2="780" style="stroke:#bbb;stroke-width:1;"/>
   <line x1="929.5" y1="863" x2="933.03553390593" y2="866.53553390593" style="stroke:#bbb;stroke-width:2;"/>
   <line x1="929.5" y1="863" x2="933.03553390593" y2="859.46446609407" style="stroke:#bbb;stroke-width:2;"/>
   <line x1="112" y1="780" x2="115.53553390593" y2="783.53553390593" style="stroke:#bbb;stroke-width:2;"/>
   <line x1="112" y1="780" x2="115.53553390593" y2="776.46446609407" style="stroke:#bbb;stroke-width:2;"/>
   <line x1="1041" y1="883" x2="1051" y2="883" style="stroke:#0b0;stroke-width:1;"/>
   <line x1="1327" y1="605" x2="1337" y2="605" style="stroke:#0b0;stroke-width:1;"/>
   <line x1="1051" y1="883" x2="1327" y2="605" style="stroke:#0b0;stroke-width:1;"/>
   <line x1="1048.5" y1="883" x2="1044.9644660941" y2="886.53553390593" style="stroke:#0b0;stroke-width:2;"/>
   <line x1="1048.5" y1="883" x2="1044.9644660941" y2="879.46446609407" style="stroke:#0b0;stroke-width:2;"/>
   <line x1="1332" y1="605" x2="1328.4644660941" y2="608.53553390593" style="stroke:#0b0;stroke-width:2;"/>
   <line x1="1332" y1="605" x2="1328.4644660941" y2="601.46446609407" style="stroke:#0b0;stroke-width:2;"/>
   <line x1="937" y1="843" x2="927" y2="843" style="stroke:#c00;stroke-width:1;"/>
   <line x1="299" y1="586" x2="289" y2="586" style="stroke:#c00;stroke-width:1;"/>
   <line x1="927" y1="843" x2="299" y2="586" style="stroke:#c00;stroke-width:1;"/>
   <line x1="929.5" y1="843" x2="933.03553390593" y2="846.53553390593" style="stroke:#c00;stroke-width:2;"/>
   <line x1="929.5" y1="843" x2="933.03553390593" y2="839.46446609407" style="stroke:#c00;stroke-width:2;"/>
   <line x1="294" y1="586" x2="297.53553390593" y2="589.53553390593" style="stroke:#c00;stroke-width:2;"/>
   <line x1="294" y1="586" x2="297.53553390593" y2="582.46446609407" style="stroke:#c00;stroke-width:2;"/>
   <line x1="1337" y1="685" x2="1327" y2="685" style="stroke:#c00;stroke-width:1;"/>
   <line x1="1267" y1="976" x2="1257" y2="976" style="stroke:#c00;stroke-width:1;"/>
   <line x1="1327" y1="685" x2="1267" y2="976" style="stroke:#c00;stroke-width:1;"/>
   <line x1="1329.5" y1="685" x2="1333.0355339059" y2="688.53553390593" style="stroke:#c00;stroke-width:2;"/>
   <line x1="1329.5" y1="685" x2="1333.0355339059" y2="681.46446609407" style="stroke:#c00;stroke-width:2;"/>
   <line x1="1262" y1="976" x2="1265.5355339059" y2="979.53553390593" style="stroke:#c00;stroke-width:2;"/>
   <line x1="1262" y1="976" x2="1265.5355339059" y2="972.46446609407" style="stroke:#c00;stroke-width:2;"/>
   <line x1="1129" y1="142" x2="1119" y2="142" style="stroke:#333;stroke-width:1;"/>
   <line x1="94" y1="59" x2="84" y2="59" style="stroke:#333;stroke-width:1;"/>
   <line x1="1119" y1="142" x2="94" y2="59" style="stroke:#333;stroke-width:1;"/>
   <line x1="1121.5" y1="142" x2="1125.0355339059" y2="145.53553390593" style="stroke:#333;stroke-width:2;"/>
   <line x1="1121.5" y1="142" x2="1125.0355339059" y2="138.46446609407" style="stroke:#333;stroke-width:2;"/>
   <line x1="89" y1="59" x2="92.535533905933" y2="62.535533905933" style="stroke:#333;stroke-width:2;"/>
   <line x1="89" y1="59" x2="92.535533905933" y2="55.464466094067" style="stroke:#333;stroke-width:2;"/>
   <line x1="1302" y1="122" x2="1312" y2="122" style="stroke:#c00;stroke-width:1;"/>
   <line x1="1327" y1="605" x2="1337" y2="605" style="stroke:#c00;stroke-width:1;"/>
   <line x1="1312" y1="122" x2="1327" y2="605" style="stroke:#c00;stroke-width:1;"/>
   <line x1="1309.5" y1="122" x2="1305.9644660941" y2="125.53553390593" style="stroke:#c00;stroke-width:2;"/>
   <line x1="1309.5" y1="122" x2="1305.9644660941" y2="118.46446609407" style="stroke:#c00;stroke-width:2;"/>
   <line x1="1332" y1="605" x2="1328.4644660941" y2="608.53553390593" style="stroke:#c00;stroke-width:2;"/>
   <line x1="1332" y1="605" x2="1328.4644660941" y2="601.46446609407" style="stroke:#c00;stroke-width:2;"/>
   <line x1="289" y1="666" x2="299" y2="666" style="stroke:#cb0;stroke-width:1;"/>
   <line x1="251" y1="211" x2="261" y2="211" style="stroke:#cb0;stroke-width:1;"/>
   <line x1="299" y1="666" x2="251" y2="211" style="stroke:#cb0;stroke-width:1;"/>
   <line x1="296.5" y1="666" x2="292.96446609407" y2="669.53553390593" style="stroke:#cb0;stroke-width:2;"/>
   <line x1="296.5" y1="666" x2="292.96446609407" y2="662.46446609407" style="stroke:#cb0;stroke-width:2;"/>
   <line x1="256" y1="211" x2="252.46446609407" y2="214.53553390593" style="stroke:#cb0;stroke-width:2;"/>
   <line x1="256" y1="211" x2="252.46446609407" y2="207.46446609407" style="stroke:#cb0;stroke-width:2;"/>
   <line x1="370" y1="414" x2="380" y2="414" style="stroke:#bbb;stroke-width:1;"/>
   <line x1="586" y1="208" x2="596" y2="208" style="stroke:#bbb;stroke-width:1;"/>
   <line x1="380" y1="414" x2="586" y2="208" style="stroke:#bbb;stroke-width:1;"/>
   <line x1="377.5" y1="414" x2="373.96446609407" y2="417.53553390593" style="stroke:#bbb;stroke-width:2;"/>
   <line x1="377.5" y1="414" x2="373.96446609407" y2="410.46446609407" style="stroke:#bbb;stroke-width:2;"/>
   <line x1="591" y1="208" x2="587.46446609407" y2="211.53553390593" style="stroke:#bbb;stroke-width:2;"/>
   <line x1="591" y1="208" x2="587.46446609407" y2="204.46446609407" style="stroke:#bbb;stroke-width:2;"/>
   <line x1="290" y1="394" x2="280" y2="394" style="stroke:#cb0;stroke-width:1;"/>
   <line x1="299" y1="586" x2="289" y2="586" style="stroke:#cb0;stroke-width:1;"/>
   <line x1="280" y1="394" x2="299" y2="586" style="stroke:#cb0;stroke-width:1;"/>
   <line x1="282.5" y1="394" x2="286.03553390593" y2="397.53553390593" style="stroke:#cb0;stroke-width:2;"/>
   <line x1="282.5" y1="394" x2="286.03553390593" y2="390.46446609407" style="stroke:#cb0;stroke-width:2;"/>
   <line x1="294" y1="586" x2="297.53553390593" y2="589.53553390593" style="stroke:#cb0;stroke-width:2;"/>
   <line x1="294" y1="586" x2="297.53553390593" y2="582.46446609407" style="stroke:#cb0;stroke-width:2;"/>
   <rect width="204" height="20" x="911" y="390" style="fill:#007;stroke:black;"/>
   <text width="204" height="20" x="916" y="404" style="fill:#fff;" font-family="Arial" font-size="16px"> equipment</text>
   <rect width="204" height="20" x="911" y="410" style="fill:#aea;stroke:black;"/>
   <text width="204" height="20" x="916" y="424" style="fill:black;" font-family="Arial" font-size="16px">equipment_id</text>
   <rect width="204" height="20" x="911" y="430" style="fill:none;stroke:black;"/>
   <text width="204" height="20" x="916" y="444" style="fill:black;" font-family="Arial" font-size="16px">name</text>
   <rect width="204" height="20" x="911" y="450" style="fill:none;stroke:black;"/>
   <text width="204" height="20" x="916" y="464" style="fill:black;" font-family="Arial" font-size="16px">equipment_type</text>
   <rect width="204" height="20" x="911" y="470" style="fill:none;stroke:black;"/>
   <text width="204" height="20" x="916" y="484" style="fill:black;" font-family="Arial" font-size="16px">weapon_damage_points</text>
   <rect width="204" height="20" x="911" y="490" style="fill:none;stroke:black;"/>
   <text width="204" height="20" x="916" y="504" style="fill:black;" font-family="Arial" font-size="16px">weapon_attack_speed</text>
   <rect width="204" height="20" x="911" y="510" style="fill:none;stroke:black;"/>
   <text width="204" height="20" x="916" y="524" style="fill:black;" font-family="Arial" font-size="16px">shield_points</text>
   <rect width="204" height="20" x="911" y="530" style="fill:none;stroke:black;"/>
   <text width="204" height="20" x="916" y="544" style="fill:black;" font-family="Arial" font-size="16px">shield_regeneration_points</text>
   <rect width="204" height="20" x="911" y="550" style="fill:none;stroke:black;"/>
   <text width="204" height="20" x="916" y="564" style="fill:black;" font-family="Arial" font-size="16px">shield_regeneration_interval</text>
   <rect width="116" height="20" x="560" y="571" style="fill:#007;stroke:black;"/>
   <text width="116" height="20" x="565" y="585" style="fill:#fff;" font-family="Arial" font-size="16px"> equipment_npc</text>
   <rect width="116" height="20" x="560" y="591" style="fill:#aea;stroke:black;"/>
   <text width="116" height="20" x="565" y="605" style="fill:black;" font-family="Arial" font-size="16px">equipment_id</text>
   <rect width="116" height="20" x="560" y="611" style="fill:#aea;stroke:black;"/>
   <text width="116" height="20" x="565" y="625" style="fill:black;" font-family="Arial" font-size="16px">npc_id</text>
   <rect width="139" height="20" x="261" y="181" style="fill:#007;stroke:black;"/>
   <text width="139" height="20" x="266" y="195" style="fill:#fff;" font-family="Arial" font-size="16px"> game_character</text>
   <rect width="139" height="20" x="261" y="201" style="fill:#aea;stroke:black;"/>
   <text width="139" height="20" x="266" y="215" style="fill:black;" font-family="Arial" font-size="16px">game_character_id</text>
   <rect width="139" height="20" x="261" y="221" style="fill:none;stroke:black;"/>
   <text width="139" height="20" x="266" y="235" style="fill:black;" font-family="Arial" font-size="16px">name</text>
   <rect width="139" height="20" x="261" y="241" style="fill:none;stroke:black;"/>
   <text width="139" height="20" x="266" y="255" style="fill:black;" font-family="Arial" font-size="16px">race_id</text>
   <rect width="102" height="20" x="629" y="724" style="fill:#007;stroke:black;"/>
   <text width="102" height="20" x="634" y="738" style="fill:#fff;" font-family="Arial" font-size="16px"> inventory</text>
   <rect width="102" height="20" x="629" y="744" style="fill:#aea;stroke:black;"/>
   <text width="102" height="20" x="634" y="758" style="fill:black;" font-family="Arial" font-size="16px">spaceship_id</text>
   <rect width="102" height="20" x="629" y="764" style="fill:#aea;stroke:black;"/>
   <text width="102" height="20" x="634" y="778" style="fill:black;" font-family="Arial" font-size="16px">equipment_id</text>
   <rect width="102" height="20" x="629" y="784" style="fill:none;stroke:black;"/>
   <text width="102" height="20" x="634" y="798" style="fill:black;" font-family="Arial" font-size="16px">amount</text>
   <rect width="58" height="20" x="49" y="750" style="fill:#007;stroke:black;"/>
   <text width="58" height="20" x="54" y="764" style="fill:#fff;" font-family="Arial" font-size="16px"> npc</text>
   <rect width="58" height="20" x="49" y="770" style="fill:#aea;stroke:black;"/>
   <text width="58" height="20" x="54" y="784" style="fill:black;" font-family="Arial" font-size="16px">npc_id</text>
   <rect width="58" height="20" x="49" y="790" style="fill:none;stroke:black;"/>
   <text width="58" height="20" x="54" y="804" style="fill:black;" font-family="Arial" font-size="16px">name</text>
   <rect width="58" height="20" x="49" y="810" style="fill:none;stroke:black;"/>
   <text width="58" height="20" x="54" y="824" style="fill:black;" font-family="Arial" font-size="16px">race_id</text>
   <rect width="118" height="20" x="1139" y="946" style="fill:#007;stroke:black;"/>
   <text width="118" height="20" x="1144" y="960" style="fill:#fff;" font-family="Arial" font-size="16px"> planet_orbit</text>
   <rect width="118" height="20" x="1139" y="966" style="fill:#aea;stroke:black;"/>
   <text width="118" height="20" x="1144" y="980" style="fill:black;" font-family="Arial" font-size="16px">planet_orbit_id</text>
   <rect width="118" height="20" x="1139" y="986" style="fill:none;stroke:black;"/>
   <text width="118" height="20" x="1144" y="1000" style="fill:black;" font-family="Arial" font-size="16px">name</text>
   <rect width="118" height="20" x="1139" y="1006" style="fill:none;stroke:black;"/>
   <text width="118" height="20" x="1144" y="1020" style="fill:black;" font-family="Arial" font-size="16px">position_x</text>
   <rect width="118" height="20" x="1139" y="1026" style="fill:none;stroke:black;"/>
   <text width="118" height="20" x="1144" y="1040" style="fill:black;" font-family="Arial" font-size="16px">position_y</text>
   <rect width="118" height="20" x="1139" y="1046" style="fill:none;stroke:black;"/>
   <text width="118" height="20" x="1144" y="1060" style="fill:black;" font-family="Arial" font-size="16px">solar_system_id</text>
   <rect width="173" height="20" x="596" y="178" style="fill:#007;stroke:black;"/>
   <text width="173" height="20" x="601" y="192" style="fill:#fff;" font-family="Arial" font-size="16px"> quest</text>
   <rect width="173" height="20" x="596" y="198" style="fill:#aea;stroke:black;"/>
   <text width="173" height="20" x="601" y="212" style="fill:black;" font-family="Arial" font-size="16px">quest_id</text>
   <rect width="173" height="20" x="596" y="218" style="fill:none;stroke:black;"/>
   <text width="173" height="20" x="601" y="232" style="fill:black;" font-family="Arial" font-size="16px">title</text>
   <rect width="173" height="20" x="596" y="238" style="fill:none;stroke:black;"/>
   <text width="173" height="20" x="601" y="252" style="fill:black;" font-family="Arial" font-size="16px">description</text>
   <rect width="173" height="20" x="596" y="258" style="fill:none;stroke:black;"/>
   <text width="173" height="20" x="601" y="272" style="fill:black;" font-family="Arial" font-size="16px">reward</text>
   <rect width="173" height="20" x="596" y="278" style="fill:none;stroke:black;"/>
   <text width="173" height="20" x="601" y="292" style="fill:black;" font-family="Arial" font-size="16px">station_administrator_id</text>
   <rect width="58" height="20" x="26" y="29" style="fill:#007;stroke:black;"/>
   <text width="58" height="20" x="31" y="43" style="fill:#fff;" font-family="Arial" font-size="16px"> race</text>
   <rect width="58" height="20" x="26" y="49" style="fill:#aea;stroke:black;"/>
   <text width="58" height="20" x="31" y="63" style="fill:black;" font-family="Arial" font-size="16px">race_id</text>
   <rect width="58" height="20" x="26" y="69" style="fill:none;stroke:black;"/>
   <text width="58" height="20" x="31" y="83" style="fill:black;" font-family="Arial" font-size="16px">name</text>
   <rect width="79" height="20" x="22" y="303" style="fill:#007;stroke:black;"/>
   <text width="79" height="20" x="27" y="317" style="fill:#fff;" font-family="Arial" font-size="16px"> reputation</text>
   <rect width="79" height="20" x="22" y="323" style="fill:#aea;stroke:black;"/>
   <text width="79" height="20" x="27" y="337" style="fill:black;" font-family="Arial" font-size="16px">race_id</text>
   <rect width="79" height="20" x="22" y="343" style="fill:#aea;stroke:black;"/>
   <text width="79" height="20" x="27" y="357" style="fill:black;" font-family="Arial" font-size="16px">user_id</text>
   <rect width="79" height="20" x="22" y="363" style="fill:none;stroke:black;"/>
   <text width="79" height="20" x="27" y="377" style="fill:black;" font-family="Arial" font-size="16px">points</text>
   <rect width="102" height="20" x="1320" y="341" style="fill:#007;stroke:black;"/>
   <text width="102" height="20" x="1325" y="355" style="fill:#fff;" font-family="Arial" font-size="16px"> shop</text>
   <rect width="102" height="20" x="1320" y="361" style="fill:#aea;stroke:black;"/>
   <text width="102" height="20" x="1325" y="375" style="fill:black;" font-family="Arial" font-size="16px">station_id</text>
   <rect width="102" height="20" x="1320" y="381" style="fill:#aea;stroke:black;"/>
   <text width="102" height="20" x="1325" y="395" style="fill:black;" font-family="Arial" font-size="16px">equipment_id</text>
   <rect width="102" height="20" x="1320" y="401" style="fill:none;stroke:black;"/>
   <text width="102" height="20" x="1325" y="415" style="fill:black;" font-family="Arial" font-size="16px">price</text>
   <rect width="102" height="20" x="1320" y="421" style="fill:none;stroke:black;"/>
   <text width="102" height="20" x="1325" y="435" style="fill:black;" font-family="Arial" font-size="16px">amount</text>
   <rect width="118" height="20" x="437" y="867" style="fill:#007;stroke:black;"/>
   <text width="118" height="20" x="442" y="881" style="fill:#fff;" font-family="Arial" font-size="16px"> solar_system</text>
   <rect width="118" height="20" x="437" y="887" style="fill:#aea;stroke:black;"/>
   <text width="118" height="20" x="442" y="901" style="fill:black;" font-family="Arial" font-size="16px">solar_system_id</text>
   <rect width="118" height="20" x="437" y="907" style="fill:none;stroke:black;"/>
   <text width="118" height="20" x="442" y="921" style="fill:black;" font-family="Arial" font-size="16px">name</text>
   <rect width="104" height="20" x="937" y="693" style="fill:#007;stroke:black;"/>
   <text width="104" height="20" x="942" y="707" style="fill:#fff;" font-family="Arial" font-size="16px"> spaceship</text>
   <rect width="104" height="20" x="937" y="713" style="fill:#aea;stroke:black;"/>
   <text width="104" height="20" x="942" y="727" style="fill:black;" font-family="Arial" font-size="16px">spaceship_id</text>
   <rect width="104" height="20" x="937" y="733" style="fill:none;stroke:black;"/>
   <text width="104" height="20" x="942" y="747" style="fill:black;" font-family="Arial" font-size="16px">name</text>
   <rect width="104" height="20" x="937" y="753" style="fill:none;stroke:black;"/>
   <text width="104" height="20" x="942" y="767" style="fill:black;" font-family="Arial" font-size="16px">hitpoints</text>
   <rect width="104" height="20" x="937" y="773" style="fill:none;stroke:black;"/>
   <text width="104" height="20" x="942" y="787" style="fill:black;" font-family="Arial" font-size="16px">weapon_slots</text>
   <rect width="104" height="20" x="937" y="793" style="fill:none;stroke:black;"/>
   <text width="104" height="20" x="942" y="807" style="fill:black;" font-family="Arial" font-size="16px">shield_slots</text>
   <rect width="104" height="20" x="937" y="813" style="fill:none;stroke:black;"/>
   <text width="104" height="20" x="942" y="827" style="fill:black;" font-family="Arial" font-size="16px">extra_slots</text>
   <rect width="104" height="20" x="937" y="833" style="fill:none;stroke:black;"/>
   <text width="104" height="20" x="942" y="847" style="fill:black;" font-family="Arial" font-size="16px">user_id</text>
   <rect width="104" height="20" x="937" y="853" style="fill:none;stroke:black;"/>
   <text width="104" height="20" x="942" y="867" style="fill:black;" font-family="Arial" font-size="16px">npc_id</text>
   <rect width="104" height="20" x="937" y="873" style="fill:none;stroke:black;"/>
   <text width="104" height="20" x="942" y="887" style="fill:black;" font-family="Arial" font-size="16px">station_id</text>
   <rect width="107" height="20" x="1337" y="575" style="fill:#007;stroke:black;"/>
   <text width="107" height="20" x="1342" y="589" style="fill:#fff;" font-family="Arial" font-size="16px"> station</text>
   <rect width="107" height="20" x="1337" y="595" style="fill:#aea;stroke:black;"/>
   <text width="107" height="20" x="1342" y="609" style="fill:black;" font-family="Arial" font-size="16px">station_id</text>
   <rect width="107" height="20" x="1337" y="615" style="fill:none;stroke:black;"/>
   <text width="107" height="20" x="1342" y="629" style="fill:black;" font-family="Arial" font-size="16px">name</text>
   <rect width="107" height="20" x="1337" y="635" style="fill:none;stroke:black;"/>
   <text width="107" height="20" x="1342" y="649" style="fill:black;" font-family="Arial" font-size="16px">position_x</text>
   <rect width="107" height="20" x="1337" y="655" style="fill:none;stroke:black;"/>
   <text width="107" height="20" x="1342" y="669" style="fill:black;" font-family="Arial" font-size="16px">position_y</text>
   <rect width="107" height="20" x="1337" y="675" style="fill:none;stroke:black;"/>
   <text width="107" height="20" x="1342" y="689" style="fill:black;" font-family="Arial" font-size="16px">planet_orbit_id</text>
   <rect width="173" height="20" x="1129" y="52" style="fill:#007;stroke:black;"/>
   <text width="173" height="20" x="1134" y="66" style="fill:#fff;" font-family="Arial" font-size="16px"> station_administrator</text>
   <rect width="173" height="20" x="1129" y="72" style="fill:#aea;stroke:black;"/>
   <text width="173" height="20" x="1134" y="86" style="fill:black;" font-family="Arial" font-size="16px">station_administrator_id</text>
   <rect width="173" height="20" x="1129" y="92" style="fill:none;stroke:black;"/>
   <text width="173" height="20" x="1134" y="106" style="fill:black;" font-family="Arial" font-size="16px">name</text>
   <rect width="173" height="20" x="1129" y="112" style="fill:none;stroke:black;"/>
   <text width="173" height="20" x="1134" y="126" style="fill:black;" font-family="Arial" font-size="16px">station_id</text>
   <rect width="173" height="20" x="1129" y="132" style="fill:none;stroke:black;"/>
   <text width="173" height="20" x="1134" y="146" style="fill:black;" font-family="Arial" font-size="16px">race_id</text>
   <rect width="139" height="20" x="150" y="556" style="fill:#007;stroke:black;"/>
   <text width="139" height="20" x="155" y="570" style="fill:#fff;" font-family="Arial" font-size="16px"> user</text>
   <rect width="139" height="20" x="150" y="576" style="fill:#aea;stroke:black;"/>
   <text width="139" height="20" x="155" y="590" style="fill:black;" font-family="Arial" font-size="16px">user_id</text>
   <rect width="139" height="20" x="150" y="596" style="fill:none;stroke:black;"/>
   <text width="139" height="20" x="155" y="610" style="fill:black;" font-family="Arial" font-size="16px">username</text>
   <rect width="139" height="20" x="150" y="616" style="fill:none;stroke:black;"/>
   <text width="139" height="20" x="155" y="630" style="fill:black;" font-family="Arial" font-size="16px">password</text>
   <rect width="139" height="20" x="150" y="636" style="fill:none;stroke:black;"/>
   <text width="139" height="20" x="155" y="650" style="fill:black;" font-family="Arial" font-size="16px">email</text>
   <rect width="139" height="20" x="150" y="656" style="fill:none;stroke:black;"/>
   <text width="139" height="20" x="155" y="670" style="fill:black;" font-family="Arial" font-size="16px">game_character_id</text>
   <rect width="80" height="20" x="290" y="364" style="fill:#007;stroke:black;"/>
   <text width="80" height="20" x="295" y="378" style="fill:#fff;" font-family="Arial" font-size="16px"> user_quest</text>
   <rect width="80" height="20" x="290" y="384" style="fill:#aea;stroke:black;"/>
   <text width="80" height="20" x="295" y="398" style="fill:black;" font-family="Arial" font-size="16px">user_id</text>
   <rect width="80" height="20" x="290" y="404" style="fill:#aea;stroke:black;"/>
   <text width="80" height="20" x="295" y="418" style="fill:black;" font-family="Arial" font-size="16px">quest_id</text>
</svg>
